<!-- Generated by IcoMoon.io -->
<svg version="1.1" xmlns="http://www.w3.org/2000/svg" width="768" height="768" viewBox="0 0 768 768">
<title>Vector-Stroke-4</title>
<g id="icomoon-ignore">
</g>
<path fill="#3c4655" d="M654 768h-540c-12.426 0-22.5-10.074-22.5-22.5v-633c0-12.426 10.074-22.5 22.5-22.5h540c12.426 0 22.5 10.074 22.5 22.5v633c0 12.426-10.074 22.5-22.5 22.5z"></path>
<path fill="#3c4655" d="M676.5 745.5v-633c0-12.426-10.074-22.5-22.5-22.5h-270v678h270c12.426 0 22.5-10.074 22.5-22.5z"></path>
<path fill="#f9f4c8" d="M136.5 135h495v588h-495z"></path>
<path fill="#f9f4c8" d="M384 135h247.5v588h-247.5z"></path>
<path fill="#ffd845" d="M519 175.5h-270c-6.78 0-13.197-3.057-17.469-8.32s-5.943-12.173-4.549-18.807l9.807-46.669c5.079-24.166 26.687-41.703 51.378-41.703h22.015l-8.010-32.043c-1.682-6.72-0.171-13.844 4.094-19.303s10.806-8.654 17.735-8.654h120c6.929 0 13.47 3.192 17.734 8.654s5.775 12.583 4.094 19.303l-8.010 32.043h22.016c24.692 0 46.299 17.537 51.378 41.701l9.808 46.671c1.394 6.635-0.279 13.543-4.549 18.807-4.274 5.263-10.691 8.32-17.471 8.32z"></path>
<path fill="#ffd845" d="M519 175.5c6.78 0 13.197-3.057 17.469-8.32s5.943-12.173 4.549-18.807l-9.808-46.671c-5.077-24.165-26.685-41.702-51.376-41.702h-22.015l8.010-32.043c1.681-6.72 0.171-13.843-4.094-19.303s-10.806-8.654-17.734-8.654h-60v175.5z"></path>
<path fill="#6ba7ff" d="M500.361 343.82c-5.758 0-11.517-2.198-15.909-6.591l-31.82-31.82c-8.787-8.786-8.787-23.032 0-31.82 8.787-8.786 23.034-8.786 31.82 0l15.909 15.911 47.73-47.728c8.787-8.785 23.033-8.788 31.82 0 8.787 8.786 8.787 23.032 0 31.82l-63.639 63.639c-4.395 4.392-10.152 6.589-15.91 6.589z"></path>
<path fill="#6ba7ff" d="M500.361 457.82c-5.758 0-11.517-2.197-15.909-6.591l-31.82-31.82c-8.787-8.786-8.787-23.033 0-31.82 8.787-8.785 23.034-8.785 31.82 0l15.909 15.911 47.73-47.728c8.787-8.786 23.033-8.788 31.82 0 8.787 8.786 8.787 23.032 0 31.82l-63.639 63.639c-4.395 4.392-10.152 6.589-15.91 6.589z"></path>
<path fill="#6ba7ff" d="M384 312h-180c-12.426 0-22.5-10.074-22.5-22.5s10.074-22.5 22.5-22.5h180c12.426 0 22.5 10.074 22.5 22.5s-10.074 22.5-22.5 22.5z"></path>
<path fill="#6ba7ff" d="M384 426h-180c-12.426 0-22.5-10.074-22.5-22.5s10.074-22.5 22.5-22.5h180c12.426 0 22.5 10.074 22.5 22.5s-10.074 22.5-22.5 22.5z"></path>
<path fill="#6ba7ff" d="M384 540h-180c-12.426 0-22.5-10.074-22.5-22.5s10.074-22.5 22.5-22.5h180c12.426 0 22.5 10.074 22.5 22.5s-10.074 22.5-22.5 22.5z"></path>
<path fill="#6ba7ff" d="M384 654h-180c-12.426 0-22.5-10.074-22.5-22.5s10.074-22.5 22.5-22.5h180c12.426 0 22.5 10.074 22.5 22.5s-10.074 22.5-22.5 22.5z"></path>
<path fill="#6ba7ff" d="M406.5 289.5c0-12.426-10.074-22.5-22.5-22.5v45c12.426 0 22.5-10.074 22.5-22.5z"></path>
<path fill="#6ba7ff" d="M384 381v45c12.426 0 22.5-10.074 22.5-22.5s-10.074-22.5-22.5-22.5z"></path>
<path fill="#6ba7ff" d="M384 495v45c12.426 0 22.5-10.074 22.5-22.5s-10.074-22.5-22.5-22.5z"></path>
<path fill="#6ba7ff" d="M384 609v45c12.426 0 22.5-10.074 22.5-22.5s-10.074-22.5-22.5-22.5z"></path>
</svg>
